<!-- Generator: Adobe Illustrator 25.2.1, SVG Export Plug-In  -->
<svg version="1.1" xmlns="http://www.w3.org/2000/svg" xmlns:xlink="http://www.w3.org/1999/xlink" x="0px" y="0px" width="942.3px"
	 height="181.9px" viewBox="0 0 942.3 181.9" style="overflow:visible;enable-background:new 0 0 942.3 181.9;"
	 xml:space="preserve">
<style type="text/css">
	.st0{fill:#FFFFFF;}
	.st1{fill:#5C36A9;}
	.st2{fill:#A884F0;}
	.st3{fill:#AF6D2F;}
	.st4{fill:#F59236;}
</style>
<defs>
</defs>
<g>
	<g id="caster_1_">
		<path class="st0" d="M250.5,181.9c-13.2,0-25.8-4.8-34.3-13c-6.7,6.6-15.9,10.5-25.6,10.5c-8.5,0-15.9-2.7-21.3-7.7
			c-6.4,5-14.8,7.7-24.3,7.7c-14.2,0-25.8-7.4-31.7-19.6c-12.5,13.1-31,20.4-52.4,20.4c-38.2,0-60.9-23-60.9-61.6
			C0,90.9,11.4,61.5,31.4,38c20.5-24.1,46.8-38,72-38c23.9,0,49.2,14.5,49.2,41.5c0,23.8-18.7,38.6-36,38.6c-16.8,0-30-12.2-30-27.7
			c0-1.8,0.2-3.5,0.5-5.1c-18,11.4-34.5,38.2-34.5,67.3c0,19,8,19,11.9,19c10.7,0,24.9-7.8,32.7-29.7l0.1-0.4l0.2-0.4
			c2.3-5.4,7.7-8.9,13.6-8.9c4.5,0,8.7,2.1,11.4,5.5c13-20.1,35.3-38,61.5-38c6.8,0,13,1.9,18.2,5.7c3.4-2.3,7.4-3.6,11.5-3.6h14
			c5.5,0,10.4,2.8,13.1,7.6c0.5,0.9,1,1.9,1.3,2.9c1-1.2,2.2-2.3,3.3-3.4C254,63,265.4,59,278.5,59c13.5,0,25.5,4.8,33.3,13
			c3.7-5.1,10-8.4,16.3-8.4h4.8c4.2-8.5,5.8-13.8,5.8-18.4c0-3.4-0.6-5.1-1.3-6.5l-0.2-0.5c-2.1-5.2-1.5-10.7,1.5-15.1
			c2.7-4.1,7.3-6.6,12.2-6.8c1.4-0.1,2.8-0.2,4.2-0.2c19.4,0,31.5,11.1,31.5,29.1c0,5.6-1.3,12-3.8,19.1c3.2,1.1,6,3.2,7.9,6
			c10.6-6.5,21.9-9.9,33.1-9.9c12.2,0,22.9,4.6,30,12.5c5.1-6.4,13.1-11.5,24-11.5c8,0,15.7,3.3,21.4,8.8c7.3-5.9,15.1-9,22.9-9
			c17.4,0,30.6,12.8,30.6,29.8c0,16.8-12.8,26.8-25.2,26.8c-7.1,0-13.8-2.6-18.8-7.2c-1.6,2.4-3.1,5-4.4,7.7l-24.5,48
			c-3.1,6.5-10,10.9-17.5,10.9h-13.8c-5.4,0-10.2-2.7-13.1-7.3c-0.8-1.2-1.3-2.5-1.7-3.8c-7.8,8.4-20.4,14.3-36.9,14.3
			c-17.7,0-31.3-7.5-38.6-20.4c-4.3,9.8-14.6,19.3-32.7,19.3c-15.5,0-26.7-7.4-31-19.7C286.1,173.1,269.7,181.9,250.5,181.9z
			 M440.1,134.9c1,2,1.5,3.8,1.9,5.5l4.5-9C444.5,132.8,442.4,133.9,440.1,134.9z M345.1,136.5c2.5,0,4.9,0.6,7.1,1.8
			c0-0.9-0.1-1.8-0.1-2.8c0-6.1,0.9-12.3,2.7-18.4l-9.3,16.2c0,0-1.6,2.8-1.9,3.3C344.1,136.5,344.6,136.5,345.1,136.5z
			 M399.4,137.4c0.3,0.1,0.9,0.2,2.2,0.2c1,0,3.1,0,6.3-1.7c-3.1-1.2-6-2.8-8.4-4.8c-0.2,1.4-0.3,2.7-0.3,3.9
			C399.1,136.5,399.3,137.2,399.4,137.4z M176.3,106.4c-10.8,6.2-18.2,21.2-19.1,29.7c0.4-0.1,0.8-0.3,1.1-0.5
			c1.2-0.8,2.6-1.4,3.9-1.8c2.9-9.5,8-17.5,11.4-23l0.6-0.9L176.3,106.4z M294.9,118.5c1.1,2.1,2.1,4.3,3,6.7
			c1.2-2.6,2.5-5.1,3.8-7.3c-1.8,0.4-3.6,0.6-5.6,0.6C295.7,118.5,295.3,118.5,294.9,118.5z M223.8,115c2.4-0.8,4.9-1.2,7.5-1.2
			c1.5,0,3.1,0.1,4.5,0.4c-1.9-4.1-3.2-8.6-3.3-13.7L223.8,115z"/>
		<path id="outline_1_" class="st1" d="M522.1,66.8c-8,0-16,3.9-23.4,11.4c-5-7.4-13.2-11.2-20.9-11.2c-12.1,0-20.2,7.8-23.6,16.2
			C448.8,72.6,437.7,66,423.7,66c-12.7,0-25.3,5-36,13.1c0-1.7-0.4-3.4-1.2-4.9c-1.7-3.1-5-5.1-8.6-5.1h-3
			c4.1-9.2,6.1-17.2,6.1-23.8c0-14.8-9.7-23.6-26-23.6c-1.2,0-2.6,0-3.9,0.1c-3.2,0.1-6.2,1.7-8,4.4c-1.9,2.9-2.3,6.5-1,9.8l0.2,0.4
			c0.9,2,1.8,4.5,1.8,8.8c0,6-2.2,12.6-7.9,23.8h-8.2c-5,0-10,2.8-12.6,7.1l-0.1,0.2l-2.9,5.6c-0.1,0.1-0.1,0.2-0.2,0.3
			c-5.4-10.6-18.2-17.8-33.9-17.8c-11.7,0-21.9,3.6-29.4,10.3c-7.2,6.5-11.2,15.3-11.2,24.9c0,11.2,6.9,19.7,12.4,26.5
			c3.7,4.5,7.1,8.8,7.3,12.2c0.2,2.8-0.4,4.8-1.5,6c-1.5,1.6-4.4,2.5-8.3,2.6c1.5-2.7,2.3-5.8,2.3-9c0-10.4-8.3-18.6-18.8-18.6
			c-11.4,0-20.7,10.1-20.9,22.5c-1.1,0-2.2,0.2-3.2,0.6l-0.2,0.1c-1.5,0.6-2.8,0.9-4.6,0.9c0.4-3.3,2.8-7.6,5.8-12.8l28.1-47
			c1.7-3,1.7-6.7-0.1-9.7c-1.8-3-4.9-4.8-8.4-4.8h-14c-4.4,0-8.6,2.1-11.3,5.4c-5.1-5-11.2-7.5-18.4-7.5
			c-26.6,0-50.4,20.6-61.9,44.5c-0.7-2.4-1.6-4.7-2.9-7c-1.5-3.1-4.6-5-8.1-5c-3.7,0-7.1,2.2-8.6,5.6l-0.1,0.2l-0.1,0.2
			C93.7,130.2,77.1,139,64.5,139c-4.3,0-17.4,0-17.4-24.5c0-42.4,31.7-78.7,57.7-78.7c2,0,4.1,0.2,5.8,0.7c-0.6,0-1.2-0.1-1.8-0.1
			c-10,0-16.7,6.4-16.7,15.9c0,12.4,10.8,22.2,24.5,22.2c14.7,0,30.6-12.6,30.6-33.1c0-23.4-22.5-36-43.7-36
			c-23.6,0-48.3,13.1-67.8,36.1C16.5,64,5.5,92.1,5.5,118.7c0,35.6,20.2,56.1,55.4,56.1c26.3,0,44.7-11.4,54.5-26.3
			c2.8,15.3,14.2,25.4,29.6,25.4c11.5,0,19.7-4.3,24.6-10.2c4,6,10.9,10.2,21,10.2c11.7,0,20.6-6.2,25.5-13.4
			c7.5,10.4,21.2,15.9,34.3,15.9c24.9,0,44.4-16.4,44.4-37.2c0-14.2-8.6-24.7-14.9-32.4c-2.5-3-6.2-7.6-6.3-9.2
			c0-3.1,1.1-4.2,4.4-4.2c3.5,0,6,3.5,6.3,9l0,0.2c0.5,6,5.5,10.4,11.7,10.4c11.6,0,18.6-9.3,19-18.5c1.6,1.2,3.5,1.9,5.6,2
			l-9.5,16.5c-0.5,0.9-1.1,1.8-1.7,2.7c-4.6,7.4-11.5,18.5-11.5,32c0,16.1,10.5,26.2,27.4,26.2c18.1,0,27-11,29.1-20.4l0.1-0.4
			l0-0.4c0.3-2.8-0.6-5.6-2.4-7.6c-1.8-2-4.4-3.2-7.1-3.2c-1.2,0-2.3,0.2-3.4,0.6c-1.3,0.5-2.8,0.8-5.2,0.8c-0.6,0-1.1,0-1.5-0.1
			c0-2.9,1.5-5.5,4.7-11.1l1-1.7l19.5-34h10.6c-8.1,11.5-13.2,25.2-13.2,38.9c0,24.4,15,39.5,39.1,39.5c25.1,0,40.2-15.1,40.2-29.7
			c0-2.1-0.2-4.9-1.8-8.1c-1.1-2.2-2.9-4-5.1-4.9c16.6-3.1,27.6-16,27.6-33.6c0-0.3,0-0.6,0-0.9c1.4,0.7,2.9,1.1,4.5,1.1
			c1.3,0,2.5-0.3,3.7-0.8l0.2-0.1l0.2-0.1c0.6-0.3,1-0.4,1.5-0.5c-0.1,2.2-0.9,5.7-4.7,13.4l-23.4,46.7c-1.5,3.1-1.4,6.7,0.5,9.7
			c1.8,3,5,4.7,8.4,4.7h13.8c5.4,0,10.4-3.2,12.7-7.9l24.5-47.9c2.9-5.9,6.2-10.7,9.2-14.1c3.9,6.4,10.9,10.5,19,10.5
			c9.7,0,19.7-8,19.7-21.3C547.2,77,536.6,66.8,522.1,66.8z M178.8,112.9l-0.6,0.9c-3.7,5.8-9.3,14.7-11.7,25c-0.1,0-0.2,0-0.2,0
			c-1.8,0-3.6,0.5-5.1,1.6c-2.4,1.4-5.3,1.8-7.3,1.8c-1.4,0-2.3,0-2.3-4.2c0-11.8,13.4-39.7,34.5-39.7c0.2,0,0.7,0,1.4,0.4
			L178.8,112.9z M419,134.2c-8.3,8.1-13.9,9-17.5,9c-5.8,0-7.9-2.2-7.9-8.2c0-4.9,1.4-10.3,3.7-15.5c3.3,7.2,10.9,12.9,23.3,13.4
			C420,133.3,419.5,133.7,419,134.2z M415.2,104c-1.7,0-3.1-0.4-4.6-1.5c-0.4-0.3-0.8-0.6-1.2-0.8c4.1-3.9,8.4-6.3,12.3-6.3
			c1.5,0,2.2,0.3,2.3,0.4c0.1,0.1,0.2,0.5,0.2,1.5C424.1,101.5,419.6,104,415.2,104z"/>
		<g id="text_2_">
			<path class="st2" d="M99.4,52.4c0-5.2,3.1-8.6,9.4-8.6c2.5,0,5,0.6,7.1,1.5c0.8,0.4,2.1,0.2,2.9-0.6c1.3-1.3,1.9-2.9,1.9-5.2
				c0-3.8-1.9-10.9-15.9-10.9c-36.6,0-65.1,48.7-65.1,86c0,21.1,9.2,31.8,24.7,31.8c14.9,0,34.7-9.8,44.8-38.3
				c0.6-1.5,2.7-1.7,3.3-0.2c2.5,4.6,3.6,9.2,3.6,14.2c0,22.4-20.1,45.4-55.2,45.4c-25.3,0-48.1-11.9-48.1-48.7
				c0-51.9,45.4-105.9,90.6-105.9c22.6,0,36.4,13.6,36.4,28.7c0,12.1-9,25.7-23.2,25.7C106.1,67.2,99.4,60.1,99.4,52.4z"/>
			<path class="st2" d="M144.2,137.9c0,6.5,2.5,11.5,9.6,11.5c4,0,8-0.8,11.3-2.9c1.5-1,3.3,0.2,3.1,1.9
				c-0.4,8.6-7.3,18.2-23.2,18.2c-12.6,0-23-8.8-23-25.7c0-29.5,28.5-66.5,61.9-66.5c8.4,0,13.8,4.6,17.8,11.3
				c0.4,0.8,1.7,0.8,2.1,0l3.6-5.6c1.3-2.1,3.8-3.6,6.3-3.6h14c1.9,0,2.9,2.1,2.1,3.6l-28,46.9c-4,6.9-6.9,12.3-6.9,17.6
				c0,5.4,3.6,6.3,7.3,6.3c2.7,0,5-0.4,7.5-1.5c1.7-0.6,3.3,1,2.7,2.7c-2.1,5.9-9.4,14.6-21.8,14.6c-9.2,0-18-5-18-18
				c0-12.8,7.7-24.5,12.3-31.8l10.5-17.4c0.6-1,0.6-2.5-0.2-3.3c-2.5-3.1-5.4-5.2-9.2-5.2C160.1,90.9,144.2,122.7,144.2,137.9z"/>
			<path class="st2" d="M231.2,126.6c6.9,0,11.5,5.2,11.5,11.3c0,4.8-2.9,8.4-6.5,10.7c-0.8,0.6-0.8,1.9-0.2,2.5
				c2.9,2.1,6.7,3.1,10.9,3.1c11.3,0,18.6-5,18-16.3c-0.6-12.3-19.7-22.4-19.7-38.3c0-14.6,12.3-27.8,33.3-27.8
				c17.4,0,29.3,9.8,29.3,22c0,5.4-3.8,11.9-11.7,11.9c-2.3,0-4.2-1.5-4.4-3.8c-0.6-10.5-6.9-15.9-13.6-15.9
				c-7.7,0-11.7,4.8-11.7,11.5c0,10,21.1,21.8,21.1,41.6c0,18-17.6,29.9-37,29.9c-15.5,0-32.8-8.8-32.8-27
				C217.6,133.5,223.9,126.6,231.2,126.6z"/>
			<path class="st2" d="M321,89.2c-1.9,0-3.1-2.1-2.1-3.6l2.9-5.6c1.3-2.1,3.8-3.6,6.3-3.6h10.5c1.3,0,2.5-0.8,3.1-1.9
				c6.7-12.8,9.8-21.1,9.8-29.3c0-5.2-1-8.8-2.5-11.9c-0.8-2.1,0.4-4.2,2.5-4.2c16.5-1.3,22.2,6.1,22.2,16.1
				c0,8.6-4.4,19.5-9.6,29.3c-0.4,0.8,0,1.9,1,1.9h12.8c1.9,0,3.1,2.1,2.1,3.8l-2.7,5.2c-1.3,2.3-3.8,3.8-6.3,3.8h-13
				c-1.3,0-2.5,0.8-3.1,1.9l-20.5,35.8c-4,6.9-6.7,11.1-6.7,16.5c0,6.5,4.4,7.3,8.8,7.3c3.1,0,5.4-0.4,7.7-1.3
				c1.7-0.6,3.3,0.6,3.1,2.5c-1.7,7.5-8.8,14.6-22,14.6c-11.9,0-20.1-6.1-20.1-18.8c0-13,7.7-23.6,12.1-31l14.9-25.7
				c0.4-0.8,0-1.9-1-1.9H321z"/>
			<path class="st2" d="M364.9,135.4c0-32.6,30.8-62.1,58.8-62.1c16.7,0,26.6,10.9,26.6,25.3c0,14.6-9.6,27-28,27
				c-15.5,0-19.7-8.8-19.7-15.3c-0.2-2.1,2.1-3.1,3.6-1.9c2.9,2.1,5.9,2.9,9,2.9c8.6,0,16.3-5.6,16.3-14c0-6.3-4-9.2-9.8-9.2
				c-16.7,0-35.4,27-35.4,46.9c0,9.8,5.2,15.5,15.3,15.5c7.1,0,14.4-3.1,22.6-11.1c1.5-1.5,3.6-0.6,4.4,1c0.8,1.7,1,3.1,1,4.8
				c0,11.1-13,22.4-32.8,22.4C375.6,167.7,364.9,154.7,364.9,135.4z"/>
			<path class="st2" d="M468.3,160.7c-1,2.3-3.6,3.8-6.1,3.8h-13.8c-1.9,0-3.1-2.1-2.3-3.8l23.4-46.7c4.6-9.4,5.6-14,5.4-18
				c-0.4-5.4-4.4-6.1-6.9-6.1c-1.9,0-3.6,0.4-5.2,1.3c-1.5,0.6-3.3-0.6-2.9-2.3c1.3-5.9,6.7-14.6,17.8-14.6c7.7,0,16.5,5.4,18,16.5
				c0.2,0.8,1,1,1.5,0.4c5.9-8.2,14.6-17.2,24.9-17.2c10.5,0,17.8,6.9,17.8,16.9c0,8.8-6.1,14-12.3,14c-7.7,0-14-5.2-14.9-13.4
				c-0.2-1-1.3-1.5-2.1-1c-6.1,3.3-13,12.3-17.8,22.2L468.3,160.7z"/>
		</g>
	</g>
	<g id="fire_2_">
		<path class="st0" d="M864,181.9c-15.9,0-29-6.1-36.9-17.3c-4.1-5.9-6.6-12.8-7.2-20.4h-21.1L787,178.7h-53.7
			c-4.8,1.5-9.5,2.2-14.2,2.2c-12.7,0-19.4-5.7-22.8-10.5c-4-5.6-7.5-15.7-1.7-32.5l0.5-1.4h-16.9l-0.7,2.1
			c-9.8,28.6-28.9,43.2-56.5,43.2c-12.4,0-24.7-3.3-32.9-8.8l-8.7-5.8l16.2-32.7l10.6,5.2c2.1,1,4,1.5,5.8,1.5
			c2.8,0,5.3-2.1,7.3-4.7h-12.8l2.5-7.5c-1.1,0.1-2.3,0.1-3.4,0.1c-16.7,0-32.7-8.3-42.9-22.2c-11.3-15.5-14-36.1-7.4-56.4
			C565.3,19.8,594.5,0,629.8,0c27.9,0,48.7,12.6,61.8,22.1L722,44c0.7-1.1,1.5-2.1,2.4-3.1c3.6-4.3,8-9.4,12.7-14.2
			c4.3-4.4,7.9-8.1,13.6-8.1c0.6,0,1.2,0,1.8,0.1l5.7,0.8l3,5.1c2.4,4.3,1.7,8.1,0.6,11.3c0.1,0,0.2,0,0.3,0
			c1.6,0.2,3.2,0.8,4.7,1.7l1.2,0.7l1,0.9c9,8.6,11.6,22.4,6.5,34.5c-0.7,1.7-1.6,3.3-2.5,4.8h43.7c4.2-1.5,8.5-2.2,12.8-2.2
			c8.3,0,15.1,3.3,19.4,9.3c0.4,0.5,0.7,1,1,1.5c10.2-6.4,22-9.8,34.7-9.8c12.3,0,22.5,4.7,28.6,13.3c4.2,5.8,5.9,12.9,5.1,20.1
			l24.3,18.5l-6.5,9.3C916.9,165.8,890.1,181.9,864,181.9z M708.8,96.8l3.8-11.1L699,76.3l-7.1,20.5H708.8z M634.6,96.8l17.6-51.2
			c-7.2-3-14.8-4.4-23.7-4.4c-11.1,0-24.4,7.3-28.4,21.4c-2.5,8.8-1.6,16.6,2.5,22.1c2.9,3.9,7.4,6.1,12.2,6.1c0.1,0,0.8,0,2.8-0.2
			l17.7-1.5l-2.4,7.8H634.6z"/>
		<path class="st3" d="M916.9,117.4l-3.6,5.1c-8.2,11.7-20.2,19.6-31.3,20.9c14.5-6.4,25-16.2,28.8-27.3c2.7-7.8,1.7-15.7-2.7-21.9
			c-4.9-6.9-13.4-10.8-23.8-10.8c-14.4,0-27.4,4.8-37.6,13.3c-0.4-2.8-1.4-5.4-2.9-7.6c-2.2-3.1-6.5-6.8-14.5-6.8
			c-5.8,0-11.5,1.6-17.2,4.6l0.8-2.5h-41.6l-14.2,41.4c-5.9,7.5-11.5,12-15.3,13.9L761,84.5h-3.9c5.6-2.4,10.2-6.9,12.9-13
			c4.2-9.8,2.1-20.9-5.1-27.8l-0.5-0.5l-0.6-0.3c-0.8-0.5-1.7-0.8-2.5-0.9c-2-0.3-4,0.4-5.4,1.8c-2.2,2.3-1.8,5.1-1.6,6.7
			c0,0.3,0,0.6-0.1,0.8c-0.5-0.4-1.1-1.3-1.3-2.6l-0.1-0.3c-0.4-2-0.2-4.4,0.6-7.1l0.1-0.2l0-0.2c0.3-1.2,1-3,1.7-4.5
			c1.3-3.1,2.4-5.8,0.8-8.7l-1.6-2.6l-2.9-0.4c-3.7-0.5-6.1,2-10.2,6.2c-4.4,4.7-8.7,9.5-12.5,14c-2.1,2.4-3.7,5.1-4.8,8l-36-25.9
			c-12.5-9-32.1-21-58.3-21c-32.7,0-59.7,18.2-68.8,46.3c-6,18.5-3.6,37.1,6.6,51.1c9,12.4,23.2,19.8,38.1,19.8
			c3.3,0,6.8-0.4,9.9-1.1l2.2-0.5l-3.1,9.1h14.4c-3.3,8.2-8.7,16.6-17.2,16.6c-2.7,0-5.5-0.7-8.4-2.1l-5.3-2.6l-11.3,22.7l4.3,2.9
			c7.2,4.9,18.3,7.8,29.6,7.8c25.2,0,41.8-12.8,50.9-39.1l2.1-6.1h17.5l9.3-27.8h-17.3l12.3-35.8l25.3,17.5h-1.9l-19.1,55.4
			c-5,14.4-2.2,22.7,0.9,27.1c2.6,3.6,7.8,8,17.9,8c7.6,0,15.6-2.3,23.6-6.7l-1.5,4.5h41.6l11.8-34.4h27.4l1.6-1.1
			c0.8-0.6,1.6-1.2,2.4-1.9c-1,9.7,1,18.8,6,25.9c6.7,9.5,18.1,14.8,32,14.8c24.1,0,49.2-15.2,67-40.7l3.3-4.7L916.9,117.4z
			 M638.9,102.7h-14.2l2.2-7.1l-8.8,0.7c-2,0.2-3,0.2-3.3,0.2c-6.7,0-12.9-3.1-16.9-8.5c-5.3-7-6.5-16.7-3.5-27.3
			c4.8-16.9,20.8-25.7,34.1-25.7c11.7,0,21.5,2.3,31.1,7.3L638.9,102.7z M725.5,73.1c2.7,5.2,7,9.1,12.1,11.3h-16.1L725.5,73.1z
			 M807.5,118.7c-1.1,3.1-3,6.2-6,9.9l-6.1,7.3l1.9-5.5c4.7-7.8,8.4-11.7,10.8-13.5C807.9,117.4,807.7,118,807.5,118.7z
			 M871.2,120.1c2.5-3.7,5.5-6.5,7.9-7.5C878.2,114.6,875.9,117.5,871.2,120.1z"/>
		<g id="text_1_">
			<path id="idot_2_" class="st4" d="M760.7,47.9c-1.2-0.7-0.5,1.5-0.5,2c0.2,11.4-11.8,8.9-13.2-0.5c-0.7-3.3-0.2-6.8,0.8-10
				c1.3-5.6,7.4-14.3-2.1-4.5c-4.3,4.5-8.3,9.1-12.3,13.8c-10.6,12.1-2.3,31.7,13.4,31.6C764.4,81.2,772.2,58.8,760.7,47.9z"/>
			<path class="st4" d="M692.8,57.6l-17.6,51.1h17.3l-5.3,15.9h-17.5l-3.5,10.1c-8.3,24.1-22.9,35.1-45.3,35.1
				c-8.7,0-19.3-2.1-26.3-6.8l6.3-12.8c3.8,1.9,7.4,2.7,11,2.7c10,0,18.5-8,24-23.9l1.6-4.6h-14.6l5.3-15.9h14.7l23.7-68.9
				c-12.2-7.5-24.1-10.5-38.3-10.5c-15.1,0-34,9.6-39.8,30c-7.1,25,7.5,43.3,26.1,43.3c1,0,2.5-0.1,3.8-0.2l-4.4,13.9
				c-2.7,0.7-5.8,1-8.5,1c-27,0-50.5-27.6-39-63.1c8.5-26.3,33.8-42.2,63.1-42.2c21.8,0,39.4,8.7,54.9,19.9L723.9,60l-5.5,15.3
				L692.8,57.6z"/>
			<path class="st4" d="M829.3,88.2c-10.4,0-20.5,6.1-29.7,16.8l5-14.6h-29l-13.1,38.3c-8.5,11.1-18.1,18.1-24.1,18.1
				c-2.8,0-4.6-1.9-2.8-7.1l17-49.4h-29l-17.7,51.4c-5.9,17-1,27.2,13.2,27.2c12.3,0,24.5-6.8,35.2-16.4l-4.9,14.3h29l13.3-38.9
				c8.5-14.3,14.8-18.2,18.8-18.2c3.7,0,4.8,4,2.4,11c-1.2,3.5-3.3,7.2-7.1,11.8h14c8.5-6.2,16.6-15.7,19.6-24.3
				C843.2,97.8,840.6,88.2,829.3,88.2z"/>
			<path class="st4" d="M926.1,131.9c-13.6,19.5-36.4,38.2-62.1,38.2c-26.6,0-38.2-21-29.7-45.1c7.3-20.5,25.6-35.7,50.1-35.7
				c17,0,25.2,12.1,20.8,24.8c-4.4,12.7-20.3,24.3-41.7,29c2.9,3.9,8,6.3,15.4,6.3c14,0,29.1-9.1,39.3-23.6L926.1,131.9z
				 M861.9,125.5c-0.5,1.6-0.9,3.1-1.2,4.6c26.2-5.7,29-23.8,20-23.8C873.6,106.3,865.3,115.7,861.9,125.5z"/>
		</g>
	</g>
</g>
</svg>
