<!-- Generator: Adobe Illustrator 25.2.1, SVG Export Plug-In  -->
<svg version="1.1" xmlns="http://www.w3.org/2000/svg" xmlns:xlink="http://www.w3.org/1999/xlink" x="0px" y="0px" width="194.4px"
	 height="206px" viewBox="0 0 194.4 206" style="overflow:visible;enable-background:new 0 0 194.4 206;" xml:space="preserve">
<style type="text/css">
	.st0{fill:#FFFFFF;}
	.st1{fill:#6E43C3;stroke:#000000;stroke-width:3;stroke-miterlimit:10;}
	.st2{fill:#DDDDDD;stroke:#000000;stroke-width:3;stroke-miterlimit:10;}
	.st3{fill:#FFFFFF;stroke:#000000;stroke-width:3;stroke-miterlimit:10;}
	.st4{fill:#AF6D2F;}
	.st5{fill:#F59236;}
</style>
<defs>
</defs>
<g>
	<g id="bookshape_1_">
		<g id="book_1_">
			<path id="outline_2_" class="st0" d="M0,128.4l8.5-2.9v-9.2l33.4-11.4c-4.9-16.4-2.4-34.1,7.1-48.7c7.9-12.6,16.5-26,25.8-38.9
				l0.1-0.1C84.2,4.5,88,0,94.7,0c3.6,0,6.9,1.6,9.1,4.5c3.9,5.1,2.5,10.4,0.4,18.4c-1,3.9-2.3,8.8-2.6,12.2l0,0.4l-0.1,0.3
				c-1.2,7.6-0.8,14.1,1.1,19.5l0.2,0.5c1.9,6.5,6.8,9.4,9.6,9.4c0.5,0,0.9-0.1,1.1-0.3c0.5-0.6,1.2-2.8,0.7-7l0-0.1
				c-0.9-2.8-2.9-8.6,0.9-13.8c2.2-3,5.7-4.9,9.5-4.9c1.7,0,3.4,0.4,5.1,1.1l1.1,0.5l1,0.7c19,13.5,27.4,38.7,21,62.7
				c-0.1,0.3-0.2,0.6-0.2,0.9l33.4,11.4v9.2l8.5,2.9V206l-87.5-29.8c-2.8,1.7-6.3,2.6-10.1,2.6c-3.7,0-7.1-0.9-9.8-2.4L0,206V128.4z
				"/>
			<path id="cover_1_" class="st1" d="M186.4,134.1l-89.2-30.4L8,134.1v60.8l80.8-27.5c2.8,4.7,13.7,4.6,16.3-0.2l81.3,27.7V134.1z"
				/>
			<g id="pages-bottom_1_">
				<path class="st2" d="M16.5,131.2v55L65,169.7c11.2-4.5,22.4-14.1,31.5-10.7c0.2,0.1,0.7-0.2,0.7-0.2v-55L16.5,131.2z"/>
				<path class="st2" d="M97.2,103.7v55c0,0,0.6,0.3,0.7,0.2c9-3.4,20.3,6.2,31.5,10.7c0,0,48.5,16.5,48.5,16.5v-55L97.2,103.7z"/>
			</g>
			<g id="pages-top_1_">
				<path class="st3" d="M16.5,122v55L65,160.5c11.2-4.5,26.6-19.1,31.5-10.7l0.7-0.2v-46.4c0-4.2-4.2-7.2-8.2-5.8L16.5,122z"/>
				<path class="st3" d="M105.3,97.3c-4-1.4-8.2,1.6-8.2,5.8v46.4l0.7,0.2c4.8-8.3,20.3,6.2,31.5,10.7c0,0,48.5,16.5,48.5,16.5v-55
					L105.3,97.3z"/>
			</g>
		</g>
	</g>
	<g id="flameshape_1_">
		<path id="outline_1_" class="st4" d="M95.9,138.8c-17.6,0-33.3-9.7-42.1-25.9c-9.1-16.9-8.4-36.4,1.9-52.4
			C63.6,48,72.2,34.7,81.3,21.9C90.5,9.3,92.5,8,94.7,8c1.1,0,2.1,0.5,2.7,1.3c1.5,2,0.8,4.7-1,11.4c-1.1,4.2-2.5,9.4-2.9,13.6
			l0,0.1l0,0.1c-1.4,8.9-0.9,16.8,1.5,23.5l0,0.1c3,9.9,11,15,17.3,15c0,0,0,0,0,0c2.1,0,5-0.5,7.1-3.1c2.5-3,3.4-7.8,2.4-14
			c-0.1-0.2-0.2-0.5-0.3-0.8c-0.7-2.2-1.6-4.7-0.2-6.6c0.7-1,1.8-1.5,3-1.5c0.6,0,1.3,0.1,2,0.4l0.3,0.1l0.3,0.2
			c16.3,11.6,23.5,33.3,17.9,54.1c-5.5,20.4-21.6,34.3-42.1,36.3C100.6,138.6,98.3,138.8,95.9,138.8
			C95.9,138.8,95.9,138.8,95.9,138.8z"/>
		<path id="flame_1_" class="st5" d="M125.4,50.4c-3.2-1.3-0.8,3.8-0.5,5.2c4.5,27.9-25.8,26.1-32.7,3.5c-2.9-8-2.9-16.7-1.6-24.9
			c1.3-14.3,13.2-37.8-6.9-10.4c-8.9,12.5-17.3,25.5-25.5,38.5c-21.9,33.7,5.5,78.9,44.3,73.1C146.4,131.2,157.6,73.2,125.4,50.4z"
			/>
	</g>
</g>
</svg>
